<svg width="860" height="400" viewBox="0 0 860 400" fill="none" xmlns="http://www.w3.org/2000/svg">
<g clip-path="url(#clip0_7133_60319)">
<g clip-path="url(#clip1_7133_60319)">
<path d="M263.058 220.893C259.829 219.183 257.17 216.714 255.271 213.485C253.372 210.256 252.422 206.838 252.422 202.849C252.422 198.86 253.372 195.252 255.271 192.213C257.17 188.984 259.829 186.705 263.058 184.805C266.287 183.096 270.086 182.146 274.264 182.146C277.873 182.146 281.102 182.716 284.141 184.046C286.99 185.375 289.459 187.274 291.358 189.554L284.141 196.011C281.482 192.972 278.443 191.453 274.834 191.453C272.745 191.453 270.845 191.833 269.136 192.783C267.427 193.732 266.097 195.062 265.147 196.771C264.198 198.481 263.818 200.38 263.818 202.659C263.818 204.938 264.198 206.838 265.147 208.547C266.097 210.256 267.427 211.586 269.136 212.536C270.845 213.485 272.745 213.865 274.834 213.865C278.443 213.865 281.672 212.346 284.141 209.307L291.358 215.764C289.459 218.234 286.99 219.943 284.141 221.273C281.292 222.602 277.873 223.172 274.264 223.172C270.086 223.552 266.287 222.602 263.058 220.893Z" fill="#0F9396"/>
<path d="M339.221 215.005H322.507L319.468 222.792H308.072L325.546 183.096H336.562L354.036 222.792H342.45L339.221 215.005ZM335.803 206.648L330.674 193.922L325.546 206.648H335.803Z" fill="#0F9396"/>
<path d="M411.776 183.096V222.792H402.659L385.186 201.709V222.792H374.169V183.096H383.476L400.95 204.179V183.096H411.776Z" fill="#0F9396"/>
<path d="M445.205 191.833H433.049V182.906H468.566V191.833H456.411V222.602H445.205V191.833Z" fill="#0F9396"/>
<path d="M489.839 183.096H501.045V222.792H489.839V183.096Z" fill="#0F9396"/>
<path d="M563.723 183.096V222.792H554.416L536.942 201.709V222.792H525.926V183.096H535.233L552.707 204.179V183.096H563.723Z" fill="#0F9396"/>
<path d="M615.195 215.005H598.481L595.442 222.792H584.046L601.52 183.096H612.536L630.01 222.792H618.424L615.195 215.005ZM611.966 206.648L606.838 193.922L601.71 206.648H611.966Z" fill="#0F9396"/>
<path d="M28.8699 241.216C28.49 242.165 27.5404 244.065 26.2108 246.534C24.8813 249.003 23.5518 251.092 22.2222 252.991C18.8034 257.55 15.1947 260.589 11.7759 261.918C8.16715 263.248 5.50808 263.628 3.79868 263.058C1.89934 262.488 0.949676 261.349 0.569808 260.209C0.379875 259.449 0.379875 259.069 0.189941 258.31C4.93828 250.902 8.16715 242.925 10.2564 233.998C12.1558 225.261 13.2954 215.575 13.2954 204.938C13.2954 194.302 12.9155 185.945 12.1558 179.677C11.396 173.409 10.4464 169.041 9.30675 166.002C8.16715 163.153 7.02755 160.874 5.88795 159.354C4.74835 157.835 3.79868 156.505 2.84901 155.935C2.08928 155.176 1.70941 154.416 1.70941 153.466C1.70941 152.517 2.08928 151.567 2.84901 150.427C3.60874 149.288 4.55841 147.768 5.88795 145.679C7.02755 143.59 8.16715 140.741 9.49668 137.322C12.1558 129.155 13.6752 117.189 13.6752 101.424C13.6752 85.66 12.7256 74.4539 10.8262 67.9962C8.92688 61.5385 5.50808 55.4606 0.569808 49.5726C0.569808 46.1538 2.65908 43.6847 6.64768 42.1652C7.59735 41.4055 9.49668 41.0256 11.7759 41.0256C14.0551 41.0256 16.3343 41.4055 18.8034 42.3552C21.2726 43.3048 23.1719 44.4444 24.8813 45.774C28.3001 48.433 30.9592 51.0921 32.8585 54.131C33.2384 52.8015 34.188 51.472 35.5176 49.7626C37.037 48.0532 38.5565 46.7236 40.4558 45.584C45.3941 42.5451 50.9022 41.0256 57.17 41.0256C63.4378 41.0256 67.9962 41.0256 71.0351 41.4055C74.0741 41.5954 77.113 41.9753 80.3419 42.5451C83.3808 43.1149 86.2298 43.8746 88.699 44.8243C91.1681 45.774 93.4473 47.1035 95.7265 48.623C97.8158 50.1424 99.7151 52.0418 101.235 53.9411C104.463 58.3096 106.363 62.868 106.933 67.8063C107.502 72.7445 108.072 76.5432 109.022 78.8224C109.972 81.2915 110.921 83.0009 111.681 83.9506C113.96 86.6097 115.29 88.1291 115.29 88.509C115.29 88.8889 114.91 89.6486 114.15 90.5983C113.39 91.548 112.631 92.8775 111.681 94.207C109.212 98.0057 107.692 103.134 107.123 109.212C106.553 115.29 104.653 120.608 101.425 124.976C98.1956 129.345 94.397 132.194 89.6486 133.523C98.1956 135.423 103.894 141.121 106.363 150.617C107.692 155.935 108.832 163.723 109.782 173.599C110.731 183.476 111.491 190.693 112.251 195.442C114.15 205.888 118.519 212.536 125.546 215.195C119.278 223.362 111.111 229.25 101.045 232.289C95.5366 233.998 90.7882 233.808 87.1795 231.529C83.3808 229.25 80.7218 225.831 79.2023 220.703C77.4929 215.764 76.3533 210.066 75.4036 203.799C74.6439 197.531 73.8841 191.073 73.5043 184.425C73.1244 177.778 72.7446 171.89 71.9848 166.572C70.4653 154.606 66.8566 148.908 60.9687 149.858C55.0807 150.997 52.2317 151.567 46.5337 152.707C46.5337 168.661 46.3438 176.638 46.3438 192.783C46.3438 205.508 47.1035 215.005 48.8129 221.273C50.5223 227.54 53.5613 232.858 58.1197 237.227C58.1197 240.266 56.0304 243.305 52.2317 246.154C50.7123 247.293 48.8129 248.053 46.7237 248.813C44.6344 249.573 42.735 249.763 40.6458 249.573C38.5565 249.383 37.037 248.813 35.7075 248.053C32.6686 245.964 30.5793 243.875 28.8699 241.216ZM68.7559 67.0465C66.6667 65.3371 64.0076 64.5774 60.9687 64.5774C57.9297 64.7673 54.7009 65.5271 51.6619 67.0465C48.4331 68.566 46.9136 70.0855 46.9136 71.6049C46.7237 95.9164 46.7237 108.072 46.7237 132.384C55.2707 131.054 61.5385 128.965 65.5271 126.116C69.5157 123.267 71.6049 119.468 71.6049 114.72C71.7949 98.0057 71.7949 89.4587 71.7949 72.7445C71.9848 70.6553 71.0351 68.7559 68.7559 67.0465Z" fill="#EB3C28"/>
<path d="M217.664 108.452C216.524 110.351 215.764 112.821 215.195 115.859C214.625 119.088 214.245 123.457 214.245 129.155C214.245 134.853 213.295 140.171 211.586 145.489C209.876 150.807 207.407 155.176 203.989 158.594C200.57 162.203 196.581 165.052 192.023 167.142C187.464 169.231 181.956 170.94 175.688 172.08C169.421 173.219 163.913 173.599 159.354 173.029C154.796 172.46 150.807 170.94 147.578 168.281C141.121 162.963 137.892 152.517 138.082 136.562C138.272 123.267 135.233 114.72 129.345 111.111C128.585 110.731 128.205 110.351 128.205 110.161C128.205 109.972 128.585 109.592 129.345 109.022C130.104 108.452 130.864 107.692 131.814 106.553C132.763 105.413 133.713 103.894 134.853 102.184C137.322 97.6258 138.651 91.7379 138.651 84.3305C138.651 76.9231 139.221 70.8452 139.981 66.2868C140.741 61.7284 141.88 57.9297 143.59 54.8908C145.109 51.8519 147.008 49.1928 149.098 47.1035C151.187 45.0143 153.656 43.4948 156.695 42.3552C159.734 41.2156 162.773 40.4559 166.192 40.076C169.421 39.6961 173.219 39.5062 177.588 39.3163C181.956 39.3163 185.755 39.5062 188.794 39.8861C192.023 40.2659 195.062 41.0257 198.101 41.9753C201.14 42.925 203.609 44.4445 205.508 46.3438C207.597 48.2431 209.307 50.5223 210.826 53.1814C213.675 58.6895 215.195 66.6667 215.005 77.4929C214.815 89.2688 217.474 97.056 222.792 100.665C223.362 101.045 223.742 101.425 223.742 101.614C223.742 101.804 223.362 102.184 222.602 102.754C221.842 103.324 221.083 104.084 220.513 104.843C219.563 105.413 218.613 106.743 217.664 108.452ZM165.432 131.244C165.432 133.713 165.432 134.853 165.432 137.322C165.432 144.349 165.622 148.338 166.192 149.478C166.762 150.617 167.141 151.567 167.521 152.137C167.901 152.896 168.281 153.466 168.851 153.656C169.421 153.846 169.99 154.226 170.75 154.606C172.65 155.366 175.309 155.176 178.917 154.036C181.576 153.086 183.476 151.567 184.425 149.478C185.755 146.439 186.515 143.4 186.705 140.171C186.895 136.942 186.895 134.853 186.895 133.713C186.895 132.004 186.895 131.054 186.895 129.345C187.084 119.658 185.565 112.631 182.716 108.262C182.146 107.312 181.576 106.553 181.007 106.173C180.437 105.793 180.247 105.413 180.247 105.223C180.247 105.033 180.627 104.463 181.386 103.514C182.146 102.754 182.906 101.614 183.856 100.285C184.805 98.9554 185.565 96.2963 186.325 92.4976C187.084 88.699 187.464 84.7104 187.654 80.5318C187.654 76.3533 187.654 73.6942 187.654 72.3647C187.654 71.0351 187.654 69.3257 187.464 67.6163C187.464 65.717 187.274 64.3875 187.084 63.4378C186.895 62.4881 186.705 61.5385 186.325 60.2089C185.945 59.0693 185.565 58.1197 184.995 57.7398C184.425 57.17 183.856 56.7901 183.096 56.2203C181.956 55.2707 180.057 54.8908 177.778 54.8908C175.499 54.8908 173.599 55.0807 172.46 55.4606C171.32 55.8405 170.18 56.6002 169.421 57.5499C168.661 58.4995 167.901 59.6391 167.521 60.5888C167.141 61.5385 166.762 63.2479 166.572 65.5271C166.192 68.3761 166.002 72.5546 166.002 78.2526C166.002 83.9506 166.192 88.509 166.572 91.9278C166.952 95.3466 167.521 97.8158 168.281 99.5252C168.851 101.045 169.611 102.374 170.37 103.324C171.13 104.274 171.7 104.843 172.08 105.223C172.46 105.603 172.839 105.983 172.839 106.363C172.839 106.743 172.65 107.123 172.08 107.692C171.7 108.262 170.94 109.212 170.37 110.351C169.611 111.491 169.041 113.01 168.281 114.72C166.382 118.329 165.622 124.027 165.432 131.244Z" fill="#EB3C28"/>
<path d="M281.481 128.965C281.481 122.887 279.772 117.949 276.353 114.15C272.744 110.351 268.186 108.642 262.108 109.212C260.589 109.402 258.689 109.592 256.79 110.161C254.891 110.731 253.751 111.111 253.371 111.111C253.181 111.111 252.991 111.111 252.801 111.111C252.232 110.921 251.852 110.161 251.282 109.212C250.142 105.603 247.863 102.754 244.634 100.665C234.188 93.8272 229.06 83.9506 229.25 71.2251C229.44 60.9687 233.238 52.9915 240.646 47.4834C248.053 41.9753 258.31 39.3163 271.415 39.3163C277.113 39.3163 282.241 40.2659 286.42 42.1653C290.788 44.0646 294.017 45.774 296.486 47.4834C301.804 51.472 304.273 56.6002 304.273 63.0579C304.273 65.1472 303.514 67.9962 302.184 71.6049C300.855 75.2137 300.095 77.303 300.095 78.0627C300.095 80.9117 301.424 83.3808 304.084 85.85C303.134 85.66 301.614 85.4701 299.905 85.66C298.006 85.66 296.296 85.4701 294.777 84.7104C293.257 83.9506 291.928 83.001 290.978 81.8614C289.269 79.7721 287.939 77.303 286.99 74.454C286.61 75.0238 285.28 75.5936 282.811 76.1634C280.342 76.7332 278.442 77.113 276.733 77.113C275.024 77.113 273.694 77.113 272.365 76.7332C271.035 76.3533 270.275 75.9734 269.706 75.5936C269.136 75.2137 268.756 74.6439 268.376 73.8842C267.996 73.1244 267.806 72.3647 267.806 71.7949C271.225 71.6049 274.264 70.6553 276.733 69.3257C279.202 67.8063 280.532 65.717 280.532 62.6781C280.532 59.6391 279.582 57.3599 277.493 55.6505C275.404 53.9411 273.124 53.1814 270.465 53.1814C261.918 53.3713 257.55 57.9297 257.36 66.8566C257.36 74.454 259.449 80.152 263.818 83.5708C266.097 85.4701 268.376 86.2298 270.845 86.2298C273.314 86.0399 275.783 85.66 278.443 84.9003C281.102 84.1406 282.621 83.7607 283.001 83.7607C283.381 83.7607 283.951 84.3305 284.33 85.4701C286.04 89.6486 288.129 92.3077 290.598 93.6372C296.486 96.6762 301.235 100.665 304.653 105.793C308.072 110.731 309.782 116.239 309.782 122.127C309.782 128.015 308.452 132.953 305.983 137.322C303.514 141.5 300.095 145.109 296.106 148.148C287.749 154.036 278.063 157.835 267.047 159.164C256.98 160.304 248.243 159.164 241.026 155.366C237.607 153.466 234.758 150.807 232.669 147.198C230.579 143.78 229.63 140.171 229.63 136.752C229.63 133.333 230.389 129.725 231.909 125.926C233.428 122.127 234.188 119.088 234.188 116.999C234.188 114.91 233.238 112.821 231.529 110.731C232.289 110.161 233.238 109.782 234.568 109.782C237.987 109.592 241.026 110.731 243.495 113.58C246.154 116.429 247.293 119.278 247.293 122.317C250.902 120.228 254.131 119.278 256.79 118.898C259.449 118.708 261.538 118.708 262.868 119.088C264.197 119.468 265.147 120.038 265.717 120.608C266.667 121.747 267.047 122.697 267.047 123.647C267.047 123.837 267.047 124.027 267.047 124.217C263.818 124.786 261.159 126.116 258.689 128.395C256.22 130.674 255.081 133.333 255.081 136.372C255.081 139.411 256.22 141.69 258.31 142.83C260.589 144.16 263.438 144.539 266.857 144.16C270.275 143.78 273.504 142.26 276.733 139.601C279.772 136.562 281.291 133.143 281.481 128.965Z" fill="#EB3C28"/>
<path d="M392.973 139.411C390.124 144.16 385.565 146.439 379.677 146.819C376.448 147.009 374.359 146.629 373.22 146.059C371.51 145.109 370.371 144.16 369.801 143.21C373.22 139.791 375.119 135.423 375.119 130.294C375.119 125.926 374.739 122.507 373.979 120.608C373.22 118.519 372.46 116.239 371.51 113.77C370.561 111.301 369.801 108.832 369.041 106.553C368.851 106.553 368.661 106.553 368.471 106.553C360.874 106.743 357.075 106.933 349.668 107.312C349.288 108.452 348.718 110.351 347.958 113.01C347.199 115.67 346.439 117.569 346.249 118.898C345.109 122.887 344.54 126.686 344.54 130.484C344.54 136.182 346.439 140.931 350.428 144.35C350.428 144.35 350.238 144.539 350.238 144.729C350.238 144.919 350.048 145.299 349.668 145.679C349.288 146.249 348.908 146.629 348.528 147.009C347.389 147.958 345.869 148.528 344.16 148.528C342.45 148.718 340.931 148.528 339.601 148.148C338.272 147.768 337.322 147.199 336.562 146.629C334.853 145.299 333.713 143.78 333.144 142.26C330.864 144.16 328.015 146.059 324.787 147.768C321.558 149.478 318.709 150.427 316.429 150.617C312.631 150.997 310.731 149.858 310.731 147.578C310.731 147.388 310.731 147.199 310.731 147.009C315.29 143.59 318.709 140.361 321.178 136.752C323.647 133.333 325.926 128.205 328.205 121.557C329.915 116.429 330.864 113.96 332.574 109.022C329.155 109.782 326.306 111.111 323.647 113.01C323.077 113.01 322.507 112.631 322.127 112.061C321.748 111.491 321.368 110.541 321.368 109.592C321.368 107.502 323.267 105.413 327.256 103.704C326.306 103.514 325.356 102.944 324.217 102.184C322.317 100.855 321.368 99.5252 321.368 98.5755C321.368 97.6259 321.558 96.8661 321.558 96.2963C321.748 95.7265 321.938 95.5366 322.127 95.1567C322.507 94.7768 323.077 94.397 323.647 94.207C327.066 96.2963 331.244 97.4359 336.372 97.8158C340.361 86.6097 342.26 81.1016 346.059 70.0855C348.148 63.8177 349.288 58.8794 349.288 55.2707C349.288 51.6619 347.958 47.8633 345.109 44.2545C345.109 44.0646 345.109 44.0646 345.109 44.0646C345.109 41.5955 348.148 40.2659 354.416 40.2659C357.645 40.2659 361.064 41.9753 364.673 45.2042C365.432 45.9639 366.382 46.9136 367.142 47.8633C368.661 44.6344 371.89 42.3552 376.448 41.0257C378.348 40.4559 380.247 40.2659 382.146 40.2659C384.046 40.2659 385.375 40.6458 386.325 41.2156C387.275 41.7854 388.034 42.925 388.414 44.2545C386.895 47.8633 385.945 52.2317 385.945 56.7901C385.945 61.5385 386.325 65.717 387.465 69.3258C388.414 72.9345 389.744 76.3533 391.073 79.5822C392.593 82.811 393.922 85.0902 395.252 86.6097C396.581 88.1292 397.911 89.2688 399.051 90.0285C400.19 90.7882 401.14 91.548 401.71 91.9279C402.469 92.3077 402.659 92.6876 402.659 93.0674C402.659 93.4473 402.469 93.8272 402.089 94.397C401.71 94.7769 401.14 95.3467 400.57 95.9165C399.051 97.246 398.481 99.9051 398.481 103.894C398.481 111.301 400.38 118.708 404.179 125.926C407.977 133.143 412.536 138.462 417.664 141.88C417.664 142.07 417.664 142.07 417.664 142.07C417.664 144.539 415.005 145.679 409.497 145.869C403.989 146.059 398.481 143.97 392.973 139.411ZM366.572 97.8158C362.203 83.3808 359.924 75.5936 359.734 74.264C357.455 81.8614 354.986 89.8386 352.517 98.1957C355.366 98.1957 358.405 98.0057 361.634 98.0057C363.533 97.8158 364.483 97.8158 366.572 97.8158Z" fill="#EB3C28"/>
<path d="M480.342 146.439C475.214 143.59 471.225 142.26 468.376 142.26C465.527 142.26 462.868 142.83 460.399 144.16C457.74 145.489 455.84 146.059 454.321 146.059C450.712 146.059 446.724 143.4 442.545 138.462C441.785 139.981 440.456 141.311 438.746 142.45C435.517 144.729 432.479 145.869 429.819 145.869C427.16 145.869 425.071 145.489 423.742 144.919C422.222 144.35 421.462 143.59 421.272 143.02C421.083 142.64 421.083 142.45 420.893 142.07C424.691 140.171 426.97 138.272 427.92 136.752C428.3 135.992 428.68 135.233 429.06 134.663C429.44 134.093 429.63 133.333 429.819 132.004C430.009 130.864 430.199 129.915 430.389 129.155C430.579 128.395 430.579 127.255 430.769 125.546C430.769 123.837 430.769 122.507 430.769 121.557C430.769 119.658 430.769 118.708 430.769 116.619C430.769 106.553 428.87 99.7151 424.881 96.1064C423.932 95.3466 423.172 94.5869 422.602 94.207C422.032 93.8272 421.652 93.4473 421.652 92.8775C421.652 92.4976 422.032 92.1178 422.602 91.548C423.172 91.1681 423.932 90.4084 424.881 89.6486C425.831 88.8889 426.591 87.7493 427.54 86.2298C429.63 82.6211 430.579 77.113 430.579 69.7056C430.579 62.1083 429.819 56.7901 428.49 53.3713C426.97 49.9525 424.501 46.9136 420.703 44.0646C420.703 42.5451 422.222 41.4055 425.261 40.6458C426.401 40.4559 427.73 40.2659 429.44 40.2659C431.149 40.2659 432.668 40.4559 434.378 41.0257C435.897 41.5955 437.227 42.1653 438.177 42.7351C440.266 44.0646 441.785 45.5841 442.735 47.1035C442.925 46.7237 443.685 45.9639 444.824 45.0143C445.964 44.0646 446.913 43.3049 447.863 42.5451C450.522 41.0257 452.991 40.2659 455.271 40.2659C457.55 40.2659 459.259 40.4559 460.399 40.6458C461.538 40.8357 462.488 41.2156 463.058 41.5955C464.197 42.5451 464.957 43.3049 465.147 44.0646C461.348 46.9136 458.879 49.9525 457.36 53.3713C455.84 56.7901 455.271 60.9687 455.271 66.2868C455.271 71.605 455.65 75.7835 456.22 79.2023C456.79 82.4312 457.55 84.9003 458.499 86.2298C459.449 87.7493 460.209 88.8889 461.158 89.6486C462.108 90.4084 462.868 91.1681 463.438 91.548C464.007 91.9278 464.387 92.4976 464.387 92.8775C464.387 93.2574 464.007 93.6372 463.438 94.207C462.868 94.5869 462.108 95.3466 461.158 96.1064C460.209 96.8661 459.449 98.0057 458.499 99.5252C456.41 102.944 455.46 108.642 455.46 116.619C455.46 119.468 455.46 120.988 455.46 124.027C455.46 125.926 455.65 127.255 456.03 127.825C456.41 128.395 457.17 128.775 458.309 128.775C461.538 128.585 463.248 128.585 466.477 128.585C470.085 128.585 472.744 128.395 474.454 127.825C476.163 127.255 478.252 126.116 480.342 124.406C481.671 124.406 482.621 125.356 483.381 127.066C483.571 127.635 483.761 128.395 483.761 129.535C483.761 130.484 483.381 131.434 482.621 132.574C481.481 134.093 480.342 135.233 479.012 135.613C482.241 137.892 483.761 139.981 483.761 142.26C483.761 144.539 482.621 146.059 480.342 146.439Z" fill="#EB3C28"/>
<path d="M501.235 40.4559C506.553 40.4559 511.111 42.7351 514.72 47.4834C514.91 47.2935 515.1 47.1035 515.29 46.7237C515.48 46.3438 516.049 45.774 516.999 45.0143C517.949 44.2545 518.898 43.4948 519.848 42.925C522.317 41.4055 524.976 40.4559 527.825 40.4559C530.484 40.4559 532.574 40.8357 534.093 41.4055C535.613 42.1653 536.372 42.7351 536.562 43.3049C536.752 43.6847 536.752 43.8747 536.942 44.2545C533.143 47.2935 530.674 50.3324 529.155 53.7512C527.635 57.17 527.065 61.3485 527.065 66.2868C527.065 71.415 527.445 75.4036 527.825 78.4426C528.205 81.4815 528.775 83.7607 529.535 85.4701C530.294 87.1795 530.864 88.509 531.814 89.6486C532.574 90.7882 533.333 91.548 534.093 91.9278C535.613 93.0674 536.372 93.8272 536.372 94.207C536.372 94.7768 535.992 95.1567 535.423 95.5366C534.853 95.9164 534.093 96.6762 533.143 97.4359C532.194 98.3856 531.434 99.5252 530.484 100.855C528.395 104.274 527.255 109.782 527.445 117.379C527.445 124.976 528.205 130.484 529.725 134.093C531.244 137.702 533.903 141.311 537.702 144.729C537.702 146.439 536.182 147.388 533.143 148.148C532.004 148.338 530.294 148.338 528.395 148.148C526.306 147.958 524.216 147.199 521.937 145.869C519.658 144.539 517.949 143.02 516.999 141.88C516.429 141.121 516.049 140.741 515.48 139.791C515.29 140.171 514.53 140.931 513.58 142.07C512.441 143.21 511.491 143.97 510.541 144.539C507.882 146.249 505.413 147.009 503.134 146.819C500.855 146.629 499.145 146.439 498.006 146.249C496.866 145.869 495.916 145.489 495.347 145.109C494.207 144.16 493.447 143.21 493.257 142.45C497.056 139.601 499.715 136.372 501.045 132.764C502.374 129.345 503.134 124.786 503.134 119.468C503.134 114.15 502.754 109.972 502.184 106.743C501.614 103.704 500.855 101.425 499.905 99.905C498.955 98.3856 498.196 97.246 497.246 96.2963C496.296 95.3466 495.537 94.7768 494.967 94.207C494.397 93.8272 494.017 93.2574 494.017 92.8775C494.017 92.4976 494.397 92.1178 494.967 91.548C495.537 91.1681 496.296 90.4084 497.246 89.6486C498.196 88.8889 498.955 87.7493 499.905 86.2298C501.994 82.6211 502.944 77.113 502.944 69.3258C502.944 61.7284 502.184 56.2203 500.665 52.8015C499.145 49.5727 496.676 46.3438 492.877 43.4948C492.877 41.9753 494.397 40.8357 497.436 40.076C498.386 40.6458 499.715 40.4559 501.235 40.4559Z" fill="#EB3C28"/>
<path d="M546.439 63.4378C544.16 62.868 543.21 61.3486 543.21 58.8794C543.21 56.4103 544.729 54.1311 547.768 51.8519C546.439 51.0921 545.299 50.1425 544.54 48.8129C543.59 47.4834 543.21 46.3438 543.21 45.0143C543.21 43.6847 543.4 42.7351 543.97 41.9753C544.539 41.2156 545.299 40.6458 546.439 40.4559C550.807 42.5451 554.986 43.6847 559.354 43.6847C561.064 43.6847 563.343 43.1149 566.192 41.9753C569.041 40.8357 571.13 40.2659 572.65 40.2659C576.068 40.2659 579.297 42.1653 581.956 45.9639C584.426 42.1653 587.464 40.2659 590.883 40.2659C592.213 40.2659 594.492 40.8357 597.341 41.9753C600.19 43.1149 602.469 43.6847 604.179 43.6847C608.357 43.6847 612.536 42.5451 617.094 40.2659C618.424 40.2659 619.373 41.2156 619.943 43.1149C620.133 43.8747 620.323 44.6344 620.323 45.774C620.323 46.9136 619.943 48.0532 619.183 49.1928C617.854 51.0921 616.714 52.2317 615.765 52.6116C617.094 53.3713 618.044 54.321 618.993 55.8405C619.943 57.17 620.513 58.4995 620.513 59.6391C620.513 60.7787 620.513 61.5385 620.133 62.2982C619.943 63.058 619.753 63.4378 619.373 63.8177C618.804 64.3875 618.044 64.7674 617.284 64.9573C613.865 61.5385 609.307 59.6391 603.419 59.6391C600 59.6391 598.291 59.6391 595.062 59.8291C594.492 60.3989 594.112 63.4378 594.112 69.1358C594.112 74.8338 594.492 79.3922 595.252 82.6211C595.822 86.0399 596.581 88.509 597.531 90.2184C598.481 91.9278 599.43 93.2574 600.19 94.207C601.14 95.1567 601.899 95.9165 602.469 96.4863C603.039 97.0561 603.419 97.4359 603.419 97.8158C603.419 98.1957 603.229 98.5755 602.849 98.9554C602.469 99.3353 601.899 99.7151 601.14 100.095C600.57 100.475 599.81 101.235 599.05 102.374C598.291 103.514 597.531 104.843 596.961 106.363C595.442 110.161 594.682 115.67 594.872 123.077C595.062 130.484 595.822 135.992 597.151 139.981C598.671 143.78 601.33 147.578 605.128 150.997C605.128 152.707 603.609 153.846 600.57 154.416C599.43 154.606 597.721 154.606 595.822 154.226C593.732 154.036 591.643 153.086 589.364 151.567C587.085 150.048 585.565 148.528 584.615 147.199C584.046 146.249 583.856 145.869 583.286 145.109C581.766 148.338 578.917 150.427 574.929 151.567C573.219 151.947 571.7 152.137 569.991 151.947C568.281 151.757 566.952 151.567 565.622 151.187C564.482 150.807 563.533 150.427 562.963 149.858C561.823 148.908 561.064 147.958 560.874 147.009C564.672 144.35 567.142 141.311 568.661 137.702C569.991 134.093 570.75 129.535 570.75 124.027C570.75 118.519 570.37 113.96 569.801 110.541C569.231 107.123 568.471 104.653 567.521 103.134C566.572 101.614 565.812 100.285 564.862 99.5252C563.913 98.5755 563.153 98.0057 562.583 97.4359C562.013 96.8661 561.634 96.4862 561.634 96.1064C561.634 95.7265 562.013 95.3467 562.583 94.7769C563.153 94.397 563.913 93.6373 564.862 92.8775C565.812 91.9279 566.572 90.7882 567.521 89.2688C569.611 85.66 570.56 80.152 570.56 72.7446C570.56 65.3372 570.18 60.9687 569.421 59.6391C569.421 59.4492 566.952 59.2593 562.203 59.2593C557.455 59.2593 554.036 59.4492 552.327 60.209C549.478 60.5888 547.958 61.7284 546.439 63.4378Z" fill="#EB3C28"/>
<path d="M701.804 161.444C698.955 166.572 694.587 168.471 688.699 167.521C685.66 166.952 683.381 166.192 682.241 165.432C680.532 163.913 679.392 162.583 678.822 161.444C682.241 158.025 683.95 153.276 683.76 147.198C683.76 141.88 683.191 138.082 682.431 135.423C681.671 132.953 680.722 130.104 679.962 127.066C679.012 124.027 678.062 120.988 677.303 118.139C677.113 118.139 676.923 118.139 676.733 118.139C669.136 117.379 665.527 116.999 657.93 116.429C657.55 117.569 656.98 119.658 656.22 122.507C655.46 125.356 654.891 127.445 654.511 128.965C653.561 133.333 652.991 137.512 652.991 141.69C652.991 148.148 655.081 153.656 659.259 158.405C659.259 158.405 659.069 158.594 659.069 158.784C659.069 158.974 658.879 159.354 658.499 159.734C658.119 160.304 657.74 160.684 657.36 160.874C656.22 161.633 654.701 162.013 652.991 161.633C651.282 161.443 649.762 160.874 648.433 160.114C647.103 159.354 646.154 158.594 645.394 157.835C643.684 155.935 642.545 154.226 641.975 152.327C639.696 154.036 637.037 155.556 633.808 156.695C630.579 157.835 627.73 158.215 625.451 158.025C621.652 157.455 619.753 156.125 619.563 153.466C619.563 153.276 619.563 153.086 619.563 152.896C623.931 150.237 627.35 147.388 629.629 143.97C631.909 140.551 634.188 135.613 636.277 128.775C637.987 123.647 638.746 120.988 640.456 115.67C637.037 116.049 634.188 117.189 631.529 118.708C630.959 118.708 630.389 118.329 630.009 117.569C629.629 116.809 629.25 115.859 629.25 114.91C629.25 112.631 631.149 110.731 634.948 109.212C633.998 108.832 633.048 108.072 631.909 107.123C630.009 105.413 629.06 103.894 629.06 102.944C629.06 101.804 629.06 101.045 629.25 100.665C629.439 100.095 629.629 99.7151 629.819 99.5252C630.199 99.1453 630.769 98.7654 631.339 98.7654C634.758 101.425 638.936 103.134 644.064 104.274C647.673 92.3077 649.572 86.4198 653.181 74.264C655.27 67.4264 656.22 61.9183 656.22 57.7398C656.22 53.5613 654.701 49.3827 651.662 45.2042C651.662 45.0143 651.662 45.0143 651.662 44.8243C651.662 41.9753 654.701 40.6458 660.779 40.6458C664.007 40.6458 667.426 42.5451 671.225 46.3438C671.985 47.2935 672.934 48.2431 673.884 49.5727C675.403 45.9639 678.442 43.3049 683.191 41.5955C685.09 41.0256 686.989 40.6458 688.889 40.6458C690.788 40.6458 692.118 41.0257 693.257 41.7854C694.207 42.5451 694.967 43.6847 695.346 45.3941C693.827 49.7626 693.067 54.8908 693.067 60.5888C693.067 66.2868 693.637 71.415 694.777 75.7835C695.726 80.3419 697.056 84.5204 698.575 88.509C700.095 92.4976 701.614 95.5366 702.944 97.4359C704.273 99.3352 705.603 100.855 706.742 101.994C707.882 103.134 708.832 104.084 709.591 104.653C710.351 105.223 710.541 105.793 710.541 106.173C710.541 106.743 710.351 107.123 709.971 107.692C709.591 108.262 709.022 108.832 708.452 109.212C707.122 110.731 706.363 113.77 706.363 118.708C706.553 127.825 708.452 136.942 712.44 146.629C716.239 156.315 720.798 163.723 726.116 169.231C726.116 169.421 726.116 169.421 726.116 169.611C726.116 172.65 723.457 173.599 717.949 172.65C712.63 171.89 707.312 167.901 701.804 161.444ZM674.644 107.502C670.085 90.2184 667.616 81.1016 667.236 79.5822C664.957 88.1292 662.868 97.056 660.589 106.173C663.438 106.363 666.477 106.743 669.515 106.933C671.605 107.312 672.554 107.312 674.644 107.502Z" fill="#EB3C28"/>
<path d="M717.759 88.1292C717.759 84.9003 717.759 83.3808 717.759 80.3419C722.127 79.5822 725.546 78.0627 727.635 75.5936C729.725 73.1244 730.864 69.3258 730.864 64.3875H730.674C728.775 65.1472 725.926 65.5271 721.937 65.3372C718.519 60.5888 715.86 53.5613 716.619 49.3827C716.999 47.8633 718.899 46.1539 720.988 45.0143C723.077 43.8747 725.546 43.3049 728.775 43.4948C732.004 43.4948 737.322 44.4445 738.842 46.7237C740.741 49.5727 741.121 58.8794 741.311 65.717C741.311 72.5546 739.411 78.0627 735.233 82.2412C730.864 86.0399 725.166 88.1292 717.759 88.1292Z" fill="#EB3C28"/>
<path d="M822.032 205.508C822.032 194.112 819.563 184.046 814.815 175.689C810.066 167.331 803.799 162.393 796.011 160.874C793.922 160.494 791.643 160.304 788.984 160.494C786.325 160.684 784.995 160.874 784.615 160.684C784.235 160.494 784.045 160.494 783.666 160.304C782.906 159.734 782.336 158.405 781.766 156.315C780.057 149.668 777.018 143.97 772.839 139.601C758.784 124.786 751.757 108.262 751.567 88.1292C751.377 71.9848 756.315 59.8291 766.002 51.0921C775.688 42.3552 789.364 37.6068 806.837 37.6068C814.435 37.6068 821.272 39.3162 826.97 42.925C832.858 46.5337 837.227 50.1425 840.456 53.5613C847.483 61.5385 851.092 72.1747 851.092 84.9003C851.092 89.0788 850.142 94.7768 848.433 101.614C846.723 108.452 845.774 112.631 845.774 113.96C845.774 119.468 847.673 124.976 851.282 130.484C849.952 129.725 848.053 129.155 845.774 128.775C843.305 128.395 841.215 127.255 838.936 125.356C836.847 123.457 835.138 121.368 833.808 118.898C831.339 114.34 829.629 109.402 828.49 103.894C827.92 104.843 826.211 105.603 822.982 106.173C819.753 106.743 817.094 106.933 814.815 106.743C812.535 106.553 810.636 105.983 808.927 105.033C807.217 104.084 806.078 103.134 805.318 102.374C804.558 101.425 803.988 100.285 803.609 99.1453C803.229 97.6258 802.849 96.2963 802.849 95.3466C807.407 95.5366 811.206 94.5869 814.625 92.3077C818.044 90.0285 819.563 86.2298 819.563 80.5318C819.563 74.8338 818.043 70.4653 815.384 67.2365C812.535 64.0076 809.496 62.2982 805.888 62.1083C794.492 61.7284 788.794 69.1358 788.984 84.7104C788.984 97.8158 792.023 107.882 797.911 115.29C800.95 119.088 804.178 121.368 807.217 121.747C810.446 122.127 813.675 122.127 817.284 121.368C820.703 120.608 822.792 120.418 823.362 120.418C823.931 120.418 824.501 121.747 825.071 124.027C827.35 132.194 830.199 137.892 833.428 141.311C841.215 149.098 847.483 158.784 852.232 170.18C856.79 181.576 859.069 193.542 859.069 205.508C859.069 217.474 857.55 226.971 854.321 234.188C851.092 241.216 846.913 246.344 841.595 249.383C830.769 255.651 818.233 255.651 803.988 250.522C790.693 245.774 779.297 237.797 769.8 227.161C765.242 221.842 761.443 215.954 758.594 209.117C755.745 202.279 754.226 196.391 754.226 190.883C754.226 185.565 755.176 180.057 756.885 174.549C758.784 169.041 759.734 164.672 759.734 161.254C759.734 158.025 758.404 154.226 755.935 150.237C756.885 149.668 758.214 149.478 759.924 149.858C764.482 150.617 768.471 153.846 771.89 159.354C775.308 165.052 777.208 170.37 777.208 175.689C781.956 173.979 786.135 173.409 789.554 174.169C793.162 174.929 795.631 175.878 797.531 177.208C799.24 178.348 800.57 179.677 801.139 181.197C802.469 183.476 803.039 185.565 803.039 187.274C803.039 187.654 803.039 187.844 803.039 188.224C798.86 187.844 795.251 188.984 792.023 191.453C788.984 194.112 787.464 198.101 787.464 203.229C787.464 208.547 788.984 212.915 792.023 216.334C795.062 219.753 798.67 222.222 803.229 223.552C807.787 224.881 811.966 224.122 815.954 221.273C819.943 218.803 822.032 213.295 822.032 205.508Z" fill="#EB3C28"/>
<path d="M700.475 243.495H187.084C185.565 243.495 184.235 242.165 184.235 240.646C184.235 239.126 185.565 237.797 187.084 237.797H700.475C701.994 237.797 703.324 239.126 703.324 240.646C703.324 242.165 701.994 243.495 700.475 243.495Z" fill="#EB3C28"/>
<path d="M280.342 277.493L291.168 258.879H269.516L280.342 277.493Z" fill="#0F9396"/>
<path d="M255.271 277.493L266.097 258.879H244.444L255.271 277.493Z" fill="#0F9396"/>
<path d="M230.199 277.493L241.025 258.879H219.563L230.199 277.493Z" fill="#0F9396"/>
<path d="M205.318 277.493L215.954 258.879H194.492L205.318 277.493Z" fill="#0F9396"/>
<path d="M683.951 277.493L694.587 258.879H673.125L683.951 277.493Z" fill="#0F9396"/>
<path d="M658.879 277.493L669.706 258.879H648.053L658.879 277.493Z" fill="#0F9396"/>
<path d="M633.808 277.493L644.634 258.879H623.172L633.808 277.493Z" fill="#0F9396"/>
<path d="M608.927 277.493L619.563 258.879H598.101L608.927 277.493Z" fill="#0F9396"/>
<path d="M464.008 313.58C458.499 315.67 452.612 316.809 446.534 317.189V342.45C456.22 342.07 465.337 340.171 473.884 336.942L464.008 313.58Z" fill="#FBAF35"/>
<path d="M497.246 282.431C494.777 287.939 491.548 293.067 487.56 297.436L505.603 314.91C511.871 308.072 516.999 300.095 520.608 291.548L497.246 282.431Z" fill="#FBAF35"/>
<path d="M502.184 258.689C502.184 265.147 501.045 271.415 499.146 277.113L522.697 286.23C525.736 277.683 527.446 268.376 527.446 258.689H502.184Z" fill="#FBAF35"/>
<path d="M490.408 258.689C490.408 284.52 469.516 305.413 443.685 305.413C417.854 305.413 396.961 284.52 396.961 258.689H390.693C390.693 264.387 391.643 269.896 393.352 275.024C393.922 276.733 394.682 278.443 395.442 280.152C397.531 284.9 400.38 289.269 403.799 293.257C404.938 294.587 406.268 295.916 407.597 297.246C411.396 300.855 415.765 303.704 420.323 306.173C422.032 306.933 423.742 307.692 425.451 308.452C430.389 310.161 435.518 311.301 441.026 311.681C441.975 311.681 442.925 311.681 443.875 311.681C444.824 311.681 445.774 311.681 446.724 311.681C452.042 311.301 457.17 310.351 462.108 308.642C463.818 308.072 465.527 307.312 467.237 306.553C471.985 304.273 476.353 301.235 480.152 297.626C481.482 296.296 482.811 294.967 483.951 293.637C487.37 289.649 490.219 285.28 492.308 280.532C493.068 278.822 493.827 277.113 494.397 275.404C496.106 270.275 497.056 264.767 497.056 258.879H490.408V258.689Z" fill="#EB3C28"/>
<path d="M483.761 301.424C479.392 305.413 474.454 308.832 469.136 311.491L479.012 334.663C487.559 330.674 495.347 325.356 501.994 318.898L483.761 301.424Z" fill="#FBAF35"/>
<path d="M423.172 313.58L413.295 336.752C421.842 340.171 431.149 342.07 440.836 342.45V317.189C434.758 316.999 428.87 315.67 423.172 313.58Z" fill="#FBAF35"/>
<path d="M403.609 301.235L385.565 318.708C392.213 325.166 400 330.484 408.357 334.473L418.234 311.301C412.725 308.832 407.787 305.413 403.609 301.235Z" fill="#FBAF35"/>
<path d="M390.124 282.241L366.572 291.358C370.181 299.905 375.309 307.882 381.577 314.72L399.62 297.246C395.822 292.877 392.593 287.749 390.124 282.241Z" fill="#FBAF35"/>
<path d="M385.185 258.689H359.924C359.924 268.376 361.633 277.493 364.482 286.23L388.034 277.113C386.325 271.415 385.185 265.147 385.185 258.689Z" fill="#FBAF35"/>
<path d="M539.981 258.689C539.981 311.871 496.866 354.986 443.685 354.986C390.503 354.986 347.388 311.871 347.388 258.689H354.416C354.416 307.882 394.492 347.958 443.685 347.958C492.877 347.958 532.953 307.882 532.953 258.689H539.981Z" fill="#EB3C28"/>
<path d="M339.981 274.834L298.766 258.879H338.842C338.842 264.198 339.221 269.516 339.981 274.834Z" fill="#FBAF35"/>
<path d="M357.265 318.139L313.2 321.747L343.4 289.459C346.629 299.715 351.187 309.402 357.265 318.139Z" fill="#FBAF35"/>
<path d="M391.643 349.668L353.276 372.08L366.572 329.915C373.789 337.702 382.336 344.35 391.643 349.668Z" fill="#FBAF35"/>
<path d="M405.128 356.315C414.815 360.114 425.261 362.583 436.088 363.343L411.396 400L405.128 356.315Z" fill="#FBAF35"/>
<path d="M451.282 363.343C462.108 362.583 472.555 360.114 482.241 356.315L475.974 400L451.282 363.343Z" fill="#FBAF35"/>
<path d="M520.798 329.915L534.093 372.08L495.917 349.858C505.223 344.349 513.58 337.702 520.798 329.915Z" fill="#FBAF35"/>
<path d="M543.97 289.459L574.169 321.747L530.104 318.139C536.182 309.402 540.931 299.715 543.97 289.459Z" fill="#FBAF35"/>
<path d="M588.604 258.879L547.389 274.834C548.148 269.706 548.528 264.387 548.528 258.879H588.604Z" fill="#FBAF35"/>
<path d="M699.715 184.235C699.715 186.135 697.436 189.554 695.916 192.023C693.637 190.313 690.788 189.554 687.749 190.123C682.811 190.883 678.822 195.252 673.504 204.368C668.186 213.485 661.159 215.575 653.371 216.904C645.584 218.424 644.634 221.273 651.092 222.602C657.55 223.932 667.046 224.311 676.923 220.703C686.8 217.094 693.257 214.055 698.955 206.838C702.374 202.469 700.855 196.581 697.056 192.972C699.335 190.503 702.374 186.895 703.134 185.375C704.273 182.716 699.905 180.817 699.715 184.235ZM698.955 198.86C698.386 199.43 695.916 198.291 693.257 196.201C690.598 194.112 688.889 191.833 689.269 191.263C689.649 190.693 692.118 191.643 694.587 193.542C694.207 194.112 693.827 194.492 693.827 194.682C693.257 196.011 694.017 195.632 694.587 195.252C694.777 195.252 695.157 194.872 695.537 194.302C698.006 196.391 699.525 198.291 698.955 198.86Z" fill="#EB3C28"/>
<path d="M184.425 184.995C185.185 186.515 188.224 190.123 190.503 192.593C186.704 196.011 184.995 201.899 188.604 206.458C194.302 213.675 200.76 216.904 210.636 220.323C220.513 223.932 230.009 223.552 236.467 222.222C242.925 220.893 241.975 217.854 234.188 216.524C226.401 215.005 219.563 213.105 214.055 203.989C208.737 194.872 204.748 190.693 199.81 189.744C196.771 189.174 193.922 190.123 191.643 191.643C189.933 189.174 187.844 185.945 187.844 183.856C187.464 180.817 183.286 182.716 184.425 184.995ZM191.833 194.302C192.402 194.872 192.592 195.252 192.782 195.252C193.352 195.632 194.112 196.011 193.542 194.682C193.542 194.492 193.162 194.112 192.782 193.542C195.251 191.643 197.531 190.693 198.1 191.263C198.67 191.833 196.771 194.112 194.112 196.201C191.453 198.291 188.984 199.43 188.414 198.86C187.844 198.291 189.364 196.391 191.833 194.302Z" fill="#EB3C28"/>
<path d="M112.821 4.93826H106.743V0.379852H124.786V4.93826H118.708V20.5128H113.01V4.93826H112.821Z" fill="#0F9396"/>
<path d="M151.377 16.1443V20.5128H135.233V0.379852H150.997V4.74832H140.931V8.16713H149.858V12.3457H140.931V15.9544H151.377V16.1443Z" fill="#0F9396"/>
<path d="M175.688 20.5128L171.51 14.245L167.331 20.5128H160.874L168.281 10.4463L161.253 0.569794H167.711L171.7 6.45773L175.688 0.569794H181.766L174.739 10.0665L182.146 20.5128H175.688Z" fill="#0F9396"/>
<path d="M227.92 20.5128V9.87653L222.792 18.6135H220.323L215.195 10.2564V20.7027H209.876V0.379852H214.625L221.652 11.9658L228.49 0.379852H233.238V20.5128H227.92Z" fill="#0F9396"/>
<path d="M261.918 16.1443V20.5128H245.774V0.379852H261.538V4.74832H251.472V8.16713H260.399V12.3457H251.472V15.9544H261.918V16.1443Z" fill="#0F9396"/>
<path d="M286.23 20.5128L282.051 14.245L277.873 20.5128H271.415L278.822 10.4463L271.795 0.569794H278.253L282.241 6.45773L286.23 0.569794H292.308L285.28 10.2564L292.688 20.7027H286.23V20.5128Z" fill="#0F9396"/>
<path d="M338.841 14.0551C338.271 13.6752 337.702 13.1054 337.322 12.5356C336.942 11.9658 336.752 11.2061 336.752 10.4463C336.752 9.6866 336.942 8.92686 337.322 8.35706C337.702 7.78726 338.271 7.21746 338.841 6.83759C339.411 6.45773 340.171 6.26779 340.93 6.26779C341.69 6.26779 342.45 6.45773 343.02 6.83759C343.59 7.21746 344.159 7.59733 344.539 8.35706C344.919 8.92686 345.109 9.6866 345.109 10.4463C345.109 11.2061 344.919 11.9658 344.539 12.5356C344.159 13.1054 343.59 13.6752 343.02 14.0551C342.45 14.4349 341.69 14.6249 340.93 14.6249C340.171 14.6249 339.411 14.4349 338.841 14.0551Z" fill="#0F9396"/>
<path d="M409.307 20.5128V9.87653L404.179 18.6135H401.71L396.581 10.2564V20.7027H391.263V0.379852H396.012L403.039 11.9658L409.877 0.379852H414.625V20.5128H409.307Z" fill="#0F9396"/>
<path d="M440.646 16.5242H432.099L430.579 20.5128H424.691L433.618 0.379852H439.126L448.053 20.5128H442.165L440.646 16.5242ZM439.126 12.3457L436.467 5.88792L433.808 12.3457H439.126Z" fill="#0F9396"/>
<path d="M467.236 15.1947H464.198V20.5128H458.5V0.379852H467.616C469.516 0.379852 471.035 0.759719 472.365 1.32952C473.694 1.89932 474.644 2.84899 475.404 3.98859C476.163 5.12819 476.543 6.45772 476.543 7.97719C476.543 9.49666 476.163 10.6363 475.594 11.7759C474.834 12.9155 473.884 13.6752 472.745 14.245L477.113 20.5128H471.035L467.236 15.1947ZM469.896 5.69799C469.326 5.12819 468.376 4.93826 467.236 4.93826H464.008V10.8262H467.236C468.376 10.8262 469.326 10.6363 469.896 10.0665C470.465 9.49666 470.845 8.92686 470.845 7.97719C470.845 7.02752 470.465 6.07786 469.896 5.69799Z" fill="#0F9396"/>
<path d="M501.805 10.0665H506.743V18.4235C505.603 19.1833 504.274 19.943 502.754 20.3229C501.235 20.7028 499.715 20.8927 498.196 20.8927C496.107 20.8927 494.207 20.5128 492.498 19.5632C490.788 18.6135 489.459 17.4739 488.509 15.7645C487.56 14.245 486.99 12.3457 486.99 10.4463C486.99 8.54701 487.56 6.64767 488.509 5.1282C489.459 3.60874 490.788 2.2792 492.498 1.32953C494.207 0.379867 496.107 0 498.196 0C500.095 0 501.805 0.379867 503.324 0.949668C504.844 1.51947 505.983 2.46914 507.123 3.60874L503.514 6.83761C502.184 5.31814 500.475 4.5584 498.576 4.5584C496.866 4.5584 495.537 5.1282 494.397 6.07787C493.258 7.02754 492.878 8.54701 492.878 10.2564C492.878 11.396 493.068 12.3457 493.637 13.2953C494.207 14.245 494.777 14.8148 495.727 15.3846C496.676 15.9544 497.626 16.1443 498.766 16.1443C499.905 16.1443 500.855 15.9544 501.805 15.5745V10.0665Z" fill="#0F9396"/>
<path d="M532.384 16.5242H523.837L522.317 20.5128H516.619L525.546 0.379852H531.054L539.981 20.5128H534.093L532.384 16.5242ZM530.864 12.3457L528.205 5.88792L525.546 12.3457H530.864Z" fill="#0F9396"/>
<path d="M558.974 15.1947H555.935V20.5128H550.237V0.379852H559.354C561.253 0.379852 562.773 0.759719 564.102 1.32952C565.432 1.89932 566.382 2.84899 567.141 3.98859C567.901 5.12819 568.281 6.45772 568.281 7.97719C568.281 9.49666 567.901 10.6363 567.331 11.7759C566.572 12.9155 565.622 13.6752 564.482 14.245L568.851 20.5128H562.773L558.974 15.1947ZM561.633 5.69799C561.064 5.12819 560.114 4.93826 558.974 4.93826H555.745V10.8262H558.974C560.114 10.8262 561.064 10.6363 561.633 10.0665C562.203 9.49666 562.583 8.92686 562.583 7.97719C562.583 7.02752 562.203 6.07786 561.633 5.69799Z" fill="#0F9396"/>
<path d="M580.057 0.379852H585.755V20.5128H580.057V0.379852Z" fill="#0F9396"/>
<path d="M602.659 4.93826H596.391V0.379852H614.435V4.93826H608.357V20.5128H602.659V4.93826Z" fill="#0F9396"/>
<path d="M637.607 16.5242H629.06L627.54 20.5128H621.652L630.579 0.379852H636.087L645.014 20.5128H639.126L637.607 16.5242ZM635.897 12.3457L633.238 5.88792L630.579 12.3457H635.897Z" fill="#0F9396"/>
<path d="M690.408 11.9658C690.978 12.7255 691.358 13.8651 691.358 15.0047C691.358 16.7141 690.598 18.0437 689.269 18.9933C687.939 19.943 685.85 20.5128 683.191 20.5128H672.365V0.379852H682.621C685.09 0.379852 687.18 0.759719 688.509 1.70939C689.839 2.65905 690.598 3.98859 690.598 5.50806C690.598 6.45773 690.408 7.40739 689.839 8.16713C689.459 8.92686 688.699 9.49666 687.939 9.87653C688.889 10.4463 689.839 11.0161 690.408 11.9658ZM677.873 4.55839V8.35706H681.861C683.761 8.35706 684.71 7.78726 684.71 6.45773C684.71 5.12819 683.761 4.55839 681.861 4.55839H677.873ZM685.66 14.4349C685.66 13.1054 684.71 12.3457 682.621 12.3457H677.873V16.3343H682.621C684.71 16.3343 685.66 15.7645 685.66 14.4349Z" fill="#0F9396"/>
<path d="M716.429 16.5242H707.882L706.363 20.5128H700.475L709.402 0.379852H714.91L723.836 20.5128H717.949L716.429 16.5242ZM714.72 12.3457L712.251 5.88792L709.591 12.3457H714.72Z" fill="#0F9396"/>
<path d="M743.02 15.1947H739.981V20.5128H734.283V0.379852H743.4C745.299 0.379852 746.819 0.759719 748.148 1.32952C749.478 1.89932 750.428 2.84899 751.187 3.98859C751.947 5.12819 752.327 6.45772 752.327 7.97719C752.327 9.49666 751.947 10.6363 751.377 11.7759C750.617 12.9155 749.668 13.6752 748.528 14.245L752.897 20.5128H746.819L743.02 15.1947ZM745.679 5.69799C745.109 5.12819 744.16 4.93826 743.02 4.93826H739.791V10.8262H743.02C744.16 10.8262 745.109 10.6363 745.679 10.0665C746.249 9.49666 746.629 8.92686 746.629 7.97719C746.629 7.02752 746.249 6.07786 745.679 5.69799Z" fill="#0F9396"/>
</g>
</g>
<defs>
<clipPath id="clip0_7133_60319">
<rect width="859.97" height="400" fill="white"/>
</clipPath>
<clipPath id="clip1_7133_60319">
<rect width="859.259" height="400" fill="white"/>
</clipPath>
</defs>
</svg>
